<svg xmlns="http://www.w3.org/2000/svg"  viewBox="0 0 39 36" width="48px" height="48px"><g data-name="Слой 2"><rect width="8" height="4" x="25" y="2" fill="#ffc107"/><path fill="#78909c" d="M28,17.111H10a5.847,5.847,0,0,1-6-5.667,5.847,5.847,0,0,1,6-5.666h6V2H10C4.486,2,0,6.237,0,11.444a9.745,9.745,0,0,0,10,9.445H28a5.847,5.847,0,0,1,6,5.667,5.847,5.847,0,0,1-6,5.666H1V36H28c5.514,0,10-4.237,10-9.444A9.745,9.745,0,0,0,28,17.111Z"/><rect width="14" height="8" x="12" fill="#b0bec5"/><rect width="2" height="4" x="32" y="2" fill="#455a64"/><rect width="2" height="4" x="28" y="2" fill="#455a64"/><polygon fill="#ffc107" points="37 6 34 5 34 3 37 2 39 4 37 6"/></g></svg>