<svg xmlns="http://www.w3.org/2000/svg"  viewBox="0 0 48 48" width="48px" height="48px"><path fill="#cddc39" d="M29.6,41H8.5C7.7,41,7,40.3,7,39.5V15.6c0-0.5,0.3-1,0.7-1.3l11.2-7C19.4,7,19.8,7,20.3,7.1 l12.6,4.2c0.4,0.1,0.7,0.4,0.9,0.8l7,14c0.3,0.5,0.2,1.1-0.2,1.6l-9.8,12.6C30.5,40.7,30.1,41,29.6,41z M10,38h18.8l8.8-11.3 L31.4,14L20,10.2L10,16.4V38z"/><path fill="#827717" d="M32 39c0 1.7-1.3 3-3 3s-3-1.3-3-3 1.3-3 3-3S32 37.3 32 39zM12 39c0 1.7-1.3 3-3 3s-3-1.3-3-3 1.3-3 3-3S12 37.3 12 39zM12 15c0 1.7-1.3 3-3 3s-3-1.3-3-3 1.3-3 3-3S12 13.3 12 15zM23 9c0 1.7-1.3 3-3 3s-3-1.3-3-3 1.3-3 3-3S23 7.3 23 9zM35 12c0 1.7-1.3 3-3 3s-3-1.3-3-3 1.3-3 3-3S35 10.3 35 12zM42 26c0 1.7-1.3 3-3 3s-3-1.3-3-3 1.3-3 3-3S42 24.3 42 26z"/></svg>