<svg xmlns="http://www.w3.org/2000/svg"  viewBox="0 0 48 48" width="48px" height="48px"><circle cx="35" cy="21" r="5" fill="#78909c"/><circle cx="35" cy="21" r="5" fill="#78909c"/><path fill="#e53935" d="M44.17,30.709l-1.41-1.418c2.089-2.08,3.24-4.85,3.24-7.797c0-3.026-1.203-5.847-3.389-7.942 l1.385-1.443C46.578,14.584,48,17.918,48,21.494C48,24.978,46.64,28.25,44.17,30.709z"/><path fill="#ffcc80" d="M18.507,38.997c-1.135,0-2.246-0.549-2.92-1.563c-1.067-1.608-0.635-3.775,0.972-4.846 c0.135-0.09,3.364-2.227,8.642-4.338c4.578-1.831,8.814-2.221,8.993-2.236c1.916-0.182,3.624,1.255,3.793,3.18 c0.17,1.923-1.25,3.619-3.172,3.793c-0.056,0.005-3.442,0.334-7.015,1.764c-4.55,1.819-7.337,3.647-7.364,3.666 C19.841,38.809,19.17,38.997,18.507,38.997z"/><path fill="#ffcc80" d="M15.502,21c-0.986,0-1.967-0.415-2.659-1.222c-1.258-1.468-1.088-3.677,0.38-4.935l7-6 c0.71-0.609,1.631-0.909,2.568-0.831l12,1c1.926,0.161,3.357,1.852,3.197,3.778c-0.16,1.927-1.844,3.361-3.779,3.197l-10.542-0.878 l-5.89,5.048C17.118,20.723,16.308,21,15.502,21z"/><path fill="#ffcc80" d="M15.17,13.129C13.255,14.725,12.106,15.75,10,18c-2.082,2.224-2.9,12-4.9,15.5c-1.1,2-4,3.4-4.1,3.5 l7,9c0,0,6.6-3.1,10-4.9l0.5-0.2c2.133-1.101,6.521-4.707,10.521-6.707l-2.489-6.319C20.931,29.358,17.011,22.277,24,15 L15.17,13.129z"/><polygon fill="#e53935" points="42,16.636 42,12 46.636,12"/></svg>