<?xml version="1.0" encoding="UTF-8"?>
<svg id="Layer_1" xmlns="http://www.w3.org/2000/svg" version="1.1" viewBox="0 0 600 12">
  <!-- Generator: Adobe Illustrator 30.1.0, SVG Export Plug-In . SVG Version: 2.1.1 Build 136)  -->
  <defs>
    <style>
      .st0 {
        fill: none;
        stroke: #000;
        stroke-miterlimit: 40;
        stroke-width: 1px;
      }
    </style>
  </defs>
  <g id="sprite">
    <path id="poly1" class="st0" d="M142,3h1l1,1h17l1,1,1,1h7l1-1,1-1h279l1-1,1-1h1l1-1,1-1h4l1,1v1h-1l-1-1h-2l-1,1-1,1h-1l-1,1-1,1H173l-1,1-1,1h-9l-1-1-1-1h-17l-1-1-1-1h-1l-1-1-1-1h-2l-1,1-1,1h-1l-1,1-1,1H0v-1h130l1-1,1-1h1l1-1,1-1h4l1,1,1,1,1,1Z"/>
    <path id="poly4" class="st0" d="M486,3h-1l-1-1-1-1h-3l-1,1-1,1h-1l-1,1-1,1h-11l-1-1v-1h1l1,1h9l1-1,1-1h1l1-1,1-1h5l1,1,1,1h1l1,1,1,1h111v1h-112l-1-1-1-1Z"/>
    <path id="poly23" class="st0" d="M461,2h2v1h-2v-1Z"/>
  </g>
</svg>