<?xml version="1.0" encoding="UTF-8"?>
<svg id="Layer_1" xmlns="http://www.w3.org/2000/svg" version="1.1" viewBox="0 0 46 40">
  <!-- Generator: Adobe Illustrator 30.1.0, SVG Export Plug-In . SVG Version: 2.1.1 Build 136)  -->
  <defs>
    <style>
      .st0 {
        fill: none;
        stroke: #000;
        stroke-miterlimit: 40;
        stroke-width: 1px;
      }
    </style>
  </defs>
  <g id="sprite">
    <path id="poly0" class="st0" d="M16,2h1l1,1,1,1,1,1,1,1,1,1,1,1,1,1,1,1,1,1,1,1,1,1,1,1,1,1v2l1,1,1,1,1,1h11v2h-6v2h4v2h-5l-1,1-1,1h-12l-1-1-1-1-1-1-1-1-1-1-1-1-1-1-1-1-1-1-1-1H2v-1l1-1,1-1,1-1,1-1,1-1,1-1,1-1,1-1,1-1h3v3l1,1,1,1v3h2v-7l-1-1-1-1V2Z"/>
  </g>
</svg>