<?xml version="1.0" encoding="UTF-8"?>
<svg id="Layer_1" xmlns="http://www.w3.org/2000/svg" version="1.1" viewBox="0 0 59 25">
  <!-- Generator: Adobe Illustrator 30.1.0, SVG Export Plug-In . SVG Version: 2.1.1 Build 136)  -->
  <defs>
    <style>
      .st0 {
        fill: none;
        stroke: #000;
        stroke-miterlimit: 40;
        stroke-width: 1px;
      }
    </style>
  </defs>
  <g id="sprite">
    <path id="poly0" class="st0" d="M2,0h5l1,1h8l1-1h15l1,1h4l1-1h19v9h-10v2h6v2h-14v-2h-4v3h-2v2h2v2h-4v-4h-5v1h2v2h-5v-2h-3l-1,1-1,1-1,1-1,1-1,1v1h2v2h-4v-8h1v-1l-1-1-1-1-1-1-1-1-1-1-1-1-1-1-1-1-1-1-1-1-1-1-1-1V0Z"/>
    <path id="poly1" class="st0" d="M42,1h-1v2h2V1h-1Z"/>
  </g>
</svg>