<?xml version="1.0" encoding="UTF-8"?>
<svg id="Layer_1" xmlns="http://www.w3.org/2000/svg" version="1.1" viewBox="0 0 44 47">
  <!-- Generator: Adobe Illustrator 30.1.0, SVG Export Plug-In . SVG Version: 2.1.1 Build 136)  -->
  <defs>
    <style>
      .st0 {
        fill: none;
        stroke: #000;
        stroke-miterlimit: 40;
        stroke-width: 1px;
      }
    </style>
  </defs>
  <g id="sprite">
    <path id="poly0" class="st0" d="M24,2h16l2,2v11h-3l-1,1-1,1h-7v4h4v4h-2v-2h-2v6l-1,1-1,1v1l-1,1-1,1-1,1-1,1v7h2v2h-4v-5l-1-1-1-1-1-1-1,1-1,1-1,1-1,1-1,1v1h2v2h-4v-7l-1-1-1-1-1-1-1-1-1-1-1-1-1-1-1-1-1-1-1-1v-11h2v3l1,1,1,1,1,1,1,1,1,1h2l1-1,1-1,1-1,1-1h1l1-1,1-1h1l1-1,1-1,1-1V4l2-2Z"/>
    <path id="poly1" class="st0" d="M27,5h-1v4h4v-4h-3Z"/>
    <path id="poly2" class="st0" d="M27,6h2v2h-2v-2Z"/>
  </g>
</svg>