<svg xmlns="http://www.w3.org/2000/svg" x="0px" y="0px" width="30" height="30" viewBox="0 0 30 30">
    <path d="M 4 3 A 1 1 0 0 0 3 4 A 1 1 0 0 0 4 5 A 1 1 0 0 0 5 4 A 1 1 0 0 0 4 3 z M 7 6 A 1 1 0 0 0 6 7 A 1 1 0 0 0 7 8 A 1 1 0 0 0 8 7 A 1 1 0 0 0 7 6 z M 10.585938 8 C 10.330063 8 10.074406 8.0974688 9.8789062 8.2929688 L 8.2929688 9.8789062 C 7.9019688 10.268906 7.9019687 10.902969 8.2929688 11.292969 L 9.4003906 12.400391 L 12.400391 9.4003906 L 11.292969 8.2929688 C 11.097969 8.0974688 10.841812 8 10.585938 8 z M 17.414062 8 C 16.884912 8 16.374307 8.209618 15.998047 8.5878906 L 8.5859375 16 C 8.2111309 16.374807 8 16.884912 8 17.414062 L 8 21 A 1.0001 1.0001 0 1 0 10 21 L 10 18 L 18.289062 26.289062 C 19.234063 27.234063 20.765937 27.234063 21.710938 26.289062 L 26.289062 21.710938 C 27.234063 20.765937 27.234063 19.234063 26.289062 18.289062 L 18 10 L 21 10 A 1.0001 1.0001 0 1 0 21 8 L 17.414062 8 z M 12 22 L 12 27 L 14 27 L 14 24 L 12 22 z"></path>
</svg>