<svg xmlns="http://www.w3.org/2000/svg" x="0px" y="0px" width="30" height="30" viewBox="0 0 30 30">
    <path d="M 4.984375 3.9863281 A 1.0001 1.0001 0 0 0 4 5 L 4 25 A 1.0001 1.0001 0 1 0 6 25 L 6 16.027344 A 1.0001 1.0001 0 0 0 6.2207031 16 L 6.7421875 16 C 6.77163 15.863885 6.8153993 15.69063 6.8476562 15.546875 A 1.0001 1.0001 0 0 0 6.9804688 15.195312 C 6.9804688 15.195312 7.4727893 12.745993 8.3183594 10.330078 C 8.7411444 9.1221209 9.2582646 7.9270388 9.7910156 7.1074219 C 10.279778 6.3554798 10.715103 6.0646606 10.935547 6.0195312 C 10.957949 6.047491 11.069269 6.1279507 11.242188 6.3984375 C 11.517406 6.8289462 11.844764 7.5609241 12.167969 8.4628906 C 12.70279 9.9554155 13.24897 11.946549 13.810547 14 L 9.2890625 14 C 9.1150625 14.649 8.9499219 15.319 8.7949219 16 L 14.373047 16 C 15.000565 18.256241 15.653937 20.490882 16.408203 22.265625 C 16.826887 23.250763 17.267405 24.099577 17.810547 24.769531 C 18.353688 25.439486 19.083333 26 20 26 C 21.416667 26 22.528226 25.095837 23.287109 24.011719 C 24.045992 22.9276 24.564456 21.595692 24.957031 20.287109 C 25.742181 17.669944 25.994141 15.099609 25.994141 15.099609 A 1.0001 1.0001 0 0 0 24.710938 14 L 17.888672 14 C 18.055672 14.61 18.240359 15.285 18.443359 16 L 23.851562 16 C 23.718351 16.9161 23.49785 18.19662 23.042969 19.712891 C 22.685544 20.904308 22.204008 22.0724 21.650391 22.863281 C 21.096774 23.654163 20.583333 24 20 24 C 19.91667 24 19.708812 23.93551 19.365234 23.511719 C 19.021657 23.087923 18.626238 22.374237 18.248047 21.484375 C 17.491664 19.704651 16.775289 17.226905 16.089844 14.734375 C 15.404398 12.241845 14.748122 9.7331764 14.050781 7.7871094 C 13.702111 6.8140759 13.349782 5.9835538 12.925781 5.3203125 C 12.501781 4.6570712 11.930556 4 11 4 C 9.6944444 4 8.8012334 4.962195 8.1152344 6.0175781 C 7.4292354 7.0729612 6.8838556 8.3778792 6.4316406 9.6699219 C 6.2694624 10.133288 6.1360244 10.58064 6 11.027344 L 6 5 A 1.0001 1.0001 0 0 0 4.984375 3.9863281 z"></path>
</svg>