<?xml version="1.0" encoding="UTF-8"?>
<svg xmlns="http://www.w3.org/2000/svg" viewBox="0 0 17 35" width="170" height="350">
  <!-- Sprite: CACTUS_SMALL_3 -->
  <!-- pixelW="17" pixelH="35" -->
  <g id="sprite">
  <path id="poly0" d="M 7,1 L 8,1 9,1 10,1 10,2 11,2 11,3 11,4 11,5 11,6 11,7 11,8 11,9 11,10 11,11 11,12 11,13 11,14 11,15 11,16 11,17 11,18 12,18 13,18 13,17 13,16 13,15 13,14 13,13 13,12 13,11 13,10 13,9 13,8 13,7 13,6 14,6 14,5 15,5 15,6 16,6 16,7 16,8 16,9 16,10 16,11 16,12 16,13 16,14 16,15 16,16 16,17 16,18 16,19 15,19 15,20 14,20 14,21 13,21 12,21 11,21 11,22 11,23 11,24 11,25 11,26 11,27 11,28 11,29 11,30 11,31 11,32 11,33 11,34 10,34 9,34 8,34 7,34 6,34 6,33 6,32 6,31 6,30 6,29 6,28 6,27 6,26 6,25 6,24 6,23 6,22 6,21 6,20 6,19 6,18 6,17 5,17 4,17 3,17 3,16 2,16 2,15 1,15 1,14 1,13 1,12 1,11 1,10 1,9 1,8 1,7 1,6 2,6 2,5 3,5 4,5 4,6 5,6 5,7 5,8 5,9 5,10 5,11 5,12 5,13 6,13 6,12 6,11 6,10 6,9 6,8 6,7 6,6 6,5 6,4 6,3 6,2 7,2 7,1 Z" fill="none" stroke="black" stroke-width="0.1" />
  </g>
</svg>