<?xml version="1.0" encoding="UTF-8"?>
<svg xmlns="http://www.w3.org/2000/svg" viewBox="0 0 25 50" width="250" height="500">
  <!-- Sprite: CACTUS_LARGE_1 -->
  <!-- pixelW="25" pixelH="50" -->
  <g id="sprite">
  <path id="poly0" d="M 10,1 L 11,1 12,1 13,1 14,1 15,1 15,2 16,2 16,3 16,4 16,5 16,6 16,7 16,8 16,9 16,10 16,11 16,12 16,13 16,14 16,15 16,16 16,17 16,18 16,19 16,20 16,21 16,22 16,23 16,24 16,25 16,26 16,27 17,27 18,27 19,27 19,26 19,25 19,24 19,23 19,22 19,21 19,20 19,19 19,18 19,17 19,16 19,15 19,14 19,13 19,12 20,12 20,11 21,11 22,11 23,11 23,12 24,12 24,13 24,14 24,15 24,16 24,17 24,18 24,19 24,20 24,21 24,22 24,23 24,24 24,25 24,26 24,27 23,27 23,28 22,28 22,29 21,29 21,30 20,30 20,31 19,31 18,31 17,31 16,31 16,32 16,33 16,34 16,35 16,36 16,37 16,38 16,39 16,40 16,41 16,42 16,43 16,44 16,45 16,46 16,47 15,47 14,47 13,47 12,47 11,47 10,47 9,47 8,47 7,47 7,46 8,46 9,46 9,45 9,44 9,43 9,42 9,41 9,40 9,39 9,38 9,37 9,36 9,35 9,34 9,33 9,32 8,32 7,32 6,32 5,32 4,32 4,31 3,31 3,30 2,30 2,29 1,29 1,28 1,27 1,26 1,25 1,24 1,23 1,22 1,21 1,20 1,19 1,18 1,17 1,16 1,15 1,14 2,14 2,13 3,13 4,13 5,13 5,14 6,14 6,15 6,16 6,17 6,18 6,19 6,20 6,21 6,22 6,23 6,24 6,25 6,26 6,27 7,27 8,27 9,27 9,26 9,25 9,24 9,23 9,22 9,21 9,20 9,19 9,18 9,17 9,16 9,15 9,14 9,13 9,12 9,11 9,10 9,9 9,8 9,7 9,6 9,5 9,4 9,3 9,2 10,2 10,1 Z" fill="none" stroke="black" stroke-width="0.1" />
  <path id="poly1" d="M 19,45 L 20,45 20,46 19,46 19,45 Z" fill="none" stroke="black" stroke-width="0.1" />
  <path id="poly2" d="M 5,46 L 6,46 6,47 5,47 5,46 Z" fill="none" stroke="black" stroke-width="0.1" />
  <path id="poly3" d="M 16,48 L 17,48 17,49 16,49 16,48 Z" fill="none" stroke="black" stroke-width="0.1" />
  </g>
</svg>