<?xml version="1.0" encoding="UTF-8"?>
<svg xmlns="http://www.w3.org/2000/svg" viewBox="0 0 46 14" width="460" height="140">
  <!-- Sprite: CLOUD -->
  <!-- pixelW="46" pixelH="14" -->
  <g id="sprite">
  <path id="poly0" d="M 25,0 L 26,0 27,0 28,0 29,0 29,1 30,1 31,1 31,2 32,2 32,3 32,4 33,4 34,4 35,4 35,5 36,5 37,5 38,5 39,5 40,5 40,6 40,7 41,7 42,7 43,7 43,8 43,9 44,9 45,9 45,10 45,11 44,11 44,10 43,10 42,10 42,9 42,8 41,8 40,8 39,8 39,7 39,6 38,6 37,6 36,6 35,6 34,6 34,5 33,5 32,5 32,6 31,6 31,5 31,4 31,3 30,3 30,2 29,2 28,2 28,1 27,1 26,1 26,2 25,2 24,2 23,2 22,2 21,2 21,3 20,3 20,4 19,4 18,4 18,5 18,6 18,7 17,7 16,7 15,7 15,8 14,8 14,9 13,9 12,9 11,9 10,9 9,9 8,9 7,9 7,10 6,10 6,11 6,12 5,12 4,12 4,11 5,11 5,10 5,9 6,9 6,8 7,8 8,8 9,8 10,8 11,8 12,8 13,8 13,7 14,7 14,6 15,6 16,6 17,6 17,5 17,4 17,3 18,3 19,3 19,2 20,2 20,1 21,1 22,1 23,1 24,1 25,1 25,0 Z" fill="none" stroke="black" stroke-width="0.1" />
  <path id="poly1" d="M 45,11 L 46,11 46,12 46,13 45,13 44,13 43,13 42,13 41,13 40,13 39,13 38,13 37,13 36,13 35,13 34,13 33,13 32,13 31,13 30,13 29,13 28,13 27,13 26,13 25,13 24,13 23,13 22,13 21,13 20,13 19,13 18,13 17,13 16,13 15,13 14,13 13,13 12,13 11,13 10,13 10,12 11,12 12,12 13,12 14,12 15,12 16,12 17,12 18,12 19,12 20,12 21,12 22,12 23,12 24,12 25,12 26,12 27,12 28,12 29,12 30,12 31,12 32,12 33,12 34,12 35,12 36,12 37,12 38,12 39,12 40,12 41,12 42,12 43,12 44,12 45,12 45,11 Z" fill="none" stroke="black" stroke-width="0.1" />
  <path id="poly2" d="M 1,11 L 2,11 3,11 3,12 2,12 2,13 1,13 0,13 0,12 1,12 1,11 Z" fill="none" stroke="black" stroke-width="0.1" />
  <path id="poly3" d="M 31,6 L 31,7 30,7 30,6 31,6 Z" fill="none" stroke="black" stroke-width="0.1" />
  <path id="poly4" d="M 9,11 L 10,11 10,12 9,12 9,11 Z" fill="none" stroke="black" stroke-width="0.1" />
  </g>
</svg>