<?xml version="1.0" encoding="UTF-8"?>
<svg xmlns="http://www.w3.org/2000/svg" viewBox="0 0 600 12" width="6000" height="120">
  <!-- Sprite: GROUND_2 -->
  <!-- pixelW="600" pixelH="12" -->
  <g id="sprite">
  <path id="poly0" d="M 455,0 L 456,0 457,0 458,0 459,0 460,0 461,0 461,1 461,2 460,2 460,1 459,1 458,1 457,1 456,1 456,2 455,2 455,3 454,3 453,3 453,4 452,4 452,5 451,5 450,5 449,5 448,5 447,5 446,5 445,5 444,5 443,5 442,5 441,5 440,5 439,5 438,5 437,5 436,5 435,5 434,5 433,5 432,5 431,5 430,5 429,5 428,5 427,5 426,5 425,5 424,5 423,5 422,5 421,5 420,5 419,5 418,5 417,5 416,5 415,5 414,5 413,5 412,5 411,5 410,5 409,5 408,5 407,5 406,5 405,5 404,5 403,5 402,5 401,5 400,5 399,5 398,5 397,5 396,5 395,5 394,5 393,5 392,5 391,5 390,5 389,5 388,5 387,5 386,5 385,5 384,5 383,5 382,5 381,5 380,5 379,5 378,5 377,5 376,5 375,5 374,5 373,5 372,5 371,5 370,5 369,5 368,5 367,5 366,5 365,5 364,5 363,5 362,5 361,5 360,5 359,5 358,5 357,5 356,5 355,5 354,5 353,5 352,5 351,5 350,5 349,5 348,5 347,5 346,5 345,5 344,5 343,5 342,5 341,5 340,5 339,5 338,5 337,5 336,5 335,5 334,5 333,5 332,5 331,5 330,5 329,5 328,5 327,5 326,5 325,5 324,5 323,5 322,5 321,5 320,5 319,5 318,5 317,5 316,5 315,5 314,5 313,5 312,5 311,5 310,5 309,5 308,5 307,5 306,5 305,5 304,5 303,5 302,5 301,5 300,5 299,5 298,5 297,5 296,5 295,5 294,5 293,5 292,5 291,5 290,5 289,5 288,5 287,5 286,5 285,5 284,5 283,5 282,5 281,5 280,5 279,5 278,5 277,5 276,5 275,5 274,5 273,5 272,5 271,5 270,5 269,5 268,5 267,5 266,5 265,5 264,5 263,5 262,5 261,5 260,5 259,5 258,5 257,5 256,5 255,5 254,5 253,5 252,5 251,5 250,5 249,5 248,5 247,5 246,5 245,5 244,5 243,5 242,5 241,5 240,5 239,5 238,5 237,5 236,5 235,5 234,5 233,5 232,5 231,5 230,5 229,5 228,5 227,5 226,5 225,5 224,5 223,5 222,5 221,5 220,5 219,5 218,5 217,5 216,5 215,5 214,5 213,5 212,5 211,5 210,5 209,5 208,5 207,5 206,5 205,5 204,5 203,5 202,5 201,5 200,5 199,5 198,5 197,5 196,5 195,5 194,5 193,5 192,5 191,5 190,5 189,5 188,5 187,5 186,5 185,5 184,5 183,5 182,5 181,5 180,5 179,5 178,5 177,5 176,5 175,5 174,5 173,5 172,5 172,6 171,6 171,7 170,7 169,7 168,7 167,7 166,7 165,7 164,7 163,7 162,7 162,6 161,6 161,5 160,5 159,5 158,5 157,5 156,5 155,5 154,5 153,5 152,5 151,5 150,5 149,5 148,5 147,5 146,5 145,5 144,5 143,5 143,4 142,4 142,3 143,3 144,3 144,4 145,4 146,4 147,4 148,4 149,4 150,4 151,4 152,4 153,4 154,4 155,4 156,4 157,4 158,4 159,4 160,4 161,4 162,4 162,5 163,5 163,6 164,6 165,6 166,6 167,6 168,6 169,6 170,6 170,5 171,5 171,4 172,4 173,4 174,4 175,4 176,4 177,4 178,4 179,4 180,4 181,4 182,4 183,4 184,4 185,4 186,4 187,4 188,4 189,4 190,4 191,4 192,4 193,4 194,4 195,4 196,4 197,4 198,4 199,4 200,4 201,4 202,4 203,4 204,4 205,4 206,4 207,4 208,4 209,4 210,4 211,4 212,4 213,4 214,4 215,4 216,4 217,4 218,4 219,4 220,4 221,4 222,4 223,4 224,4 225,4 226,4 227,4 228,4 229,4 230,4 231,4 232,4 233,4 234,4 235,4 236,4 237,4 238,4 239,4 240,4 241,4 242,4 243,4 244,4 245,4 246,4 247,4 248,4 249,4 250,4 251,4 252,4 253,4 254,4 255,4 256,4 257,4 258,4 259,4 260,4 261,4 262,4 263,4 264,4 265,4 266,4 267,4 268,4 269,4 270,4 271,4 272,4 273,4 274,4 275,4 276,4 277,4 278,4 279,4 280,4 281,4 282,4 283,4 284,4 285,4 286,4 287,4 288,4 289,4 290,4 291,4 292,4 293,4 294,4 295,4 296,4 297,4 298,4 299,4 300,4 301,4 302,4 303,4 304,4 305,4 306,4 307,4 308,4 309,4 310,4 311,4 312,4 313,4 314,4 315,4 316,4 317,4 318,4 319,4 320,4 321,4 322,4 323,4 324,4 325,4 326,4 327,4 328,4 329,4 330,4 331,4 332,4 333,4 334,4 335,4 336,4 337,4 338,4 339,4 340,4 341,4 342,4 343,4 344,4 345,4 346,4 347,4 348,4 349,4 350,4 351,4 352,4 353,4 354,4 355,4 356,4 357,4 358,4 359,4 360,4 361,4 362,4 363,4 364,4 365,4 366,4 367,4 368,4 369,4 370,4 371,4 372,4 373,4 374,4 375,4 376,4 377,4 378,4 379,4 380,4 381,4 382,4 383,4 384,4 385,4 386,4 387,4 388,4 389,4 390,4 391,4 392,4 393,4 394,4 395,4 396,4 397,4 398,4 399,4 400,4 401,4 402,4 403,4 404,4 405,4 406,4 407,4 408,4 409,4 410,4 411,4 412,4 413,4 414,4 415,4 416,4 417,4 418,4 419,4 420,4 421,4 422,4 423,4 424,4 425,4 426,4 427,4 428,4 429,4 430,4 431,4 432,4 433,4 434,4 435,4 436,4 437,4 438,4 439,4 440,4 441,4 442,4 443,4 444,4 445,4 446,4 447,4 448,4 449,4 450,4 451,4 451,3 452,3 452,2 453,2 454,2 454,1 455,1 455,0 Z" fill="none" stroke="black" stroke-width="0.1" />
  <path id="poly1" d="M 134,0 L 135,0 136,0 137,0 138,0 139,0 140,0 140,1 141,1 141,2 142,2 142,3 141,3 140,3 140,2 139,2 139,1 138,1 137,1 136,1 135,1 135,2 134,2 134,3 133,3 132,3 132,4 131,4 131,5 130,5 129,5 128,5 127,5 126,5 125,5 124,5 123,5 122,5 121,5 120,5 119,5 118,5 117,5 116,5 115,5 114,5 113,5 112,5 111,5 110,5 109,5 108,5 107,5 106,5 105,5 104,5 103,5 102,5 101,5 100,5 99,5 98,5 97,5 96,5 95,5 94,5 93,5 92,5 91,5 90,5 89,5 88,5 87,5 86,5 85,5 84,5 83,5 82,5 81,5 80,5 79,5 78,5 77,5 76,5 75,5 74,5 73,5 72,5 71,5 70,5 69,5 68,5 67,5 66,5 65,5 64,5 63,5 62,5 61,5 60,5 59,5 58,5 57,5 56,5 55,5 54,5 53,5 52,5 51,5 50,5 49,5 48,5 47,5 46,5 45,5 44,5 43,5 42,5 41,5 40,5 39,5 38,5 37,5 36,5 35,5 34,5 33,5 32,5 31,5 30,5 29,5 28,5 27,5 26,5 25,5 24,5 23,5 22,5 21,5 20,5 19,5 18,5 17,5 16,5 15,5 14,5 13,5 12,5 11,5 10,5 9,5 8,5 7,5 6,5 5,5 4,5 3,5 2,5 1,5 0,5 0,4 1,4 2,4 3,4 4,4 5,4 6,4 7,4 8,4 9,4 10,4 11,4 12,4 13,4 14,4 15,4 16,4 17,4 18,4 19,4 20,4 21,4 22,4 23,4 24,4 25,4 26,4 27,4 28,4 29,4 30,4 31,4 32,4 33,4 34,4 35,4 36,4 37,4 38,4 39,4 40,4 41,4 42,4 43,4 44,4 45,4 46,4 47,4 48,4 49,4 50,4 51,4 52,4 53,4 54,4 55,4 56,4 57,4 58,4 59,4 60,4 61,4 62,4 63,4 64,4 65,4 66,4 67,4 68,4 69,4 70,4 71,4 72,4 73,4 74,4 75,4 76,4 77,4 78,4 79,4 80,4 81,4 82,4 83,4 84,4 85,4 86,4 87,4 88,4 89,4 90,4 91,4 92,4 93,4 94,4 95,4 96,4 97,4 98,4 99,4 100,4 101,4 102,4 103,4 104,4 105,4 106,4 107,4 108,4 109,4 110,4 111,4 112,4 113,4 114,4 115,4 116,4 117,4 118,4 119,4 120,4 121,4 122,4 123,4 124,4 125,4 126,4 127,4 128,4 129,4 130,4 130,3 131,3 131,2 132,2 133,2 133,1 134,1 134,0 Z" fill="none" stroke="black" stroke-width="0.1" />
  <path id="poly2" d="M 487,3 L 488,3 489,3 489,4 490,4 491,4 492,4 493,4 494,4 495,4 496,4 497,4 498,4 499,4 500,4 501,4 502,4 503,4 504,4 505,4 506,4 507,4 508,4 509,4 510,4 511,4 512,4 513,4 514,4 515,4 516,4 517,4 518,4 519,4 520,4 521,4 522,4 523,4 524,4 525,4 526,4 527,4 528,4 529,4 530,4 531,4 532,4 533,4 534,4 535,4 536,4 537,4 538,4 539,4 540,4 541,4 542,4 543,4 544,4 545,4 546,4 547,4 548,4 549,4 550,4 551,4 552,4 553,4 554,4 555,4 556,4 557,4 558,4 559,4 560,4 561,4 562,4 563,4 564,4 565,4 566,4 567,4 568,4 569,4 570,4 571,4 572,4 573,4 574,4 575,4 576,4 577,4 578,4 579,4 580,4 581,4 582,4 583,4 584,4 585,4 586,4 587,4 588,4 589,4 590,4 591,4 592,4 593,4 594,4 595,4 596,4 597,4 598,4 599,4 600,4 600,5 599,5 598,5 597,5 596,5 595,5 594,5 593,5 592,5 591,5 590,5 589,5 588,5 587,5 586,5 585,5 584,5 583,5 582,5 581,5 580,5 579,5 578,5 577,5 576,5 575,5 574,5 573,5 572,5 571,5 570,5 569,5 568,5 567,5 566,5 565,5 564,5 563,5 562,5 561,5 560,5 559,5 558,5 557,5 556,5 555,5 554,5 553,5 552,5 551,5 550,5 549,5 548,5 547,5 546,5 545,5 544,5 543,5 542,5 541,5 540,5 539,5 538,5 537,5 536,5 535,5 534,5 533,5 532,5 531,5 530,5 529,5 528,5 527,5 526,5 525,5 524,5 523,5 522,5 521,5 520,5 519,5 518,5 517,5 516,5 515,5 514,5 513,5 512,5 511,5 510,5 509,5 508,5 507,5 506,5 505,5 504,5 503,5 502,5 501,5 500,5 499,5 498,5 497,5 496,5 495,5 494,5 493,5 492,5 491,5 490,5 489,5 488,5 488,4 487,4 487,3 Z" fill="none" stroke="black" stroke-width="0.1" />
  <path id="poly3" d="M 463,3 L 464,3 465,3 465,4 466,4 467,4 468,4 469,4 470,4 471,4 472,4 473,4 474,4 474,3 475,3 476,3 476,4 475,4 475,5 474,5 473,5 472,5 471,5 470,5 469,5 468,5 467,5 466,5 465,5 464,5 464,4 463,4 463,3 Z" fill="none" stroke="black" stroke-width="0.1" />
  <path id="poly4" d="M 479,0 L 480,0 481,0 482,0 483,0 484,0 485,0 485,1 485,2 484,2 484,1 483,1 482,1 481,1 480,1 480,2 479,2 479,3 478,3 477,3 476,3 476,2 477,2 478,2 478,1 479,1 479,0 Z" fill="none" stroke="black" stroke-width="0.1" />
  <path id="poly5" d="M 151,7 L 152,7 153,7 154,7 155,7 155,8 154,8 153,8 152,8 151,8 151,7 Z" fill="none" stroke="black" stroke-width="0.1" />
  <path id="poly6" d="M 353,7 L 354,7 355,7 356,7 357,7 357,8 356,8 355,8 354,8 353,8 353,7 Z" fill="none" stroke="black" stroke-width="0.1" />
  <path id="poly7" d="M 575,7 L 576,7 577,7 578,7 579,7 579,8 578,8 577,8 576,8 575,8 575,7 Z" fill="none" stroke="black" stroke-width="0.1" />
  <path id="poly8" d="M 6,8 L 7,8 8,8 9,8 10,8 10,9 9,9 8,9 7,9 6,9 6,8 Z" fill="none" stroke="black" stroke-width="0.1" />
  <path id="poly9" d="M 90,10 L 91,10 92,10 93,10 94,10 94,11 93,11 92,11 91,11 90,11 90,10 Z" fill="none" stroke="black" stroke-width="0.1" />
  <path id="poly10" d="M 0,11 L 1,11 2,11 3,11 4,11 4,12 3,12 2,12 1,12 0,12 0,11 Z" fill="none" stroke="black" stroke-width="0.1" />
  <path id="poly11" d="M 48,11 L 49,11 50,11 51,11 52,11 52,12 51,12 50,12 49,12 48,12 48,11 Z" fill="none" stroke="black" stroke-width="0.1" />
  <path id="poly12" d="M 416,11 L 417,11 418,11 419,11 420,11 420,12 419,12 418,12 417,12 416,12 416,11 Z" fill="none" stroke="black" stroke-width="0.1" />
  <path id="poly13" d="M 55,7 L 56,7 57,7 58,7 58,8 57,8 56,8 55,8 55,7 Z" fill="none" stroke="black" stroke-width="0.1" />
  <path id="poly14" d="M 226,7 L 227,7 228,7 229,7 229,8 228,8 227,8 226,8 226,7 Z" fill="none" stroke="black" stroke-width="0.1" />
  <path id="poly15" d="M 381,8 L 382,8 383,8 384,8 384,9 383,9 382,9 381,9 381,8 Z" fill="none" stroke="black" stroke-width="0.1" />
  <path id="poly16" d="M 438,8 L 439,8 440,8 441,8 441,9 440,9 439,9 438,9 438,8 Z" fill="none" stroke="black" stroke-width="0.1" />
  <path id="poly17" d="M 497,8 L 498,8 499,8 500,8 500,9 499,9 498,9 497,9 497,8 Z" fill="none" stroke="black" stroke-width="0.1" />
  <path id="poly18" d="M 563,8 L 564,8 565,8 566,8 566,9 565,9 564,9 563,9 563,8 Z" fill="none" stroke="black" stroke-width="0.1" />
  <path id="poly19" d="M 515,9 L 516,9 517,9 518,9 518,10 517,10 516,10 515,10 515,9 Z" fill="none" stroke="black" stroke-width="0.1" />
  <path id="poly20" d="M 188,10 L 189,10 190,10 191,10 191,11 190,11 189,11 188,11 188,10 Z" fill="none" stroke="black" stroke-width="0.1" />
  <path id="poly21" d="M 282,10 L 283,10 284,10 285,10 285,11 284,11 283,11 282,11 282,10 Z" fill="none" stroke="black" stroke-width="0.1" />
  <path id="poly22" d="M 335,11 L 336,11 337,11 338,11 338,12 337,12 336,12 335,12 335,11 Z" fill="none" stroke="black" stroke-width="0.1" />
  <path id="poly23" d="M 461,2 L 462,2 463,2 463,3 462,3 461,3 461,2 Z" fill="none" stroke="black" stroke-width="0.1" />
  <path id="poly24" d="M 485,2 L 486,2 487,2 487,3 486,3 485,3 485,2 Z" fill="none" stroke="black" stroke-width="0.1" />
  <path id="poly25" d="M 102,8 L 103,8 104,8 104,9 103,9 102,9 102,8 Z" fill="none" stroke="black" stroke-width="0.1" />
  <path id="poly26" d="M 182,8 L 183,8 184,8 184,9 183,9 182,9 182,8 Z" fill="none" stroke="black" stroke-width="0.1" />
  <path id="poly27" d="M 321,8 L 322,8 323,8 323,9 322,9 321,9 321,8 Z" fill="none" stroke="black" stroke-width="0.1" />
  <path id="poly28" d="M 549,8 L 550,8 551,8 551,9 550,9 549,9 549,8 Z" fill="none" stroke="black" stroke-width="0.1" />
  <path id="poly29" d="M 410,9 L 411,9 412,9 412,10 411,10 410,10 410,9 Z" fill="none" stroke="black" stroke-width="0.1" />
  <path id="poly30" d="M 70,10 L 71,10 72,10 72,11 71,11 70,11 70,10 Z" fill="none" stroke="black" stroke-width="0.1" />
  <path id="poly31" d="M 137,10 L 138,10 139,10 139,11 138,11 137,11 137,10 Z" fill="none" stroke="black" stroke-width="0.1" />
  <path id="poly32" d="M 266,10 L 267,10 268,10 268,11 267,11 266,11 266,10 Z" fill="none" stroke="black" stroke-width="0.1" />
  <path id="poly33" d="M 464,10 L 465,10 466,10 466,11 465,11 464,11 464,10 Z" fill="none" stroke="black" stroke-width="0.1" />
  <path id="poly34" d="M 14,11 L 15,11 16,11 16,12 15,12 14,12 14,11 Z" fill="none" stroke="black" stroke-width="0.1" />
  <path id="poly35" d="M 524,11 L 525,11 526,11 526,12 525,12 524,12 524,11 Z" fill="none" stroke="black" stroke-width="0.1" />
  <path id="poly36" d="M 85,8 L 86,8 86,9 85,9 85,8 Z" fill="none" stroke="black" stroke-width="0.1" />
  <path id="poly37" d="M 215,8 L 216,8 216,9 215,9 215,8 Z" fill="none" stroke="black" stroke-width="0.1" />
  <path id="poly38" d="M 246,8 L 247,8 247,9 246,9 246,8 Z" fill="none" stroke="black" stroke-width="0.1" />
  <path id="poly39" d="M 362,8 L 363,8 363,9 362,9 362,8 Z" fill="none" stroke="black" stroke-width="0.1" />
  <path id="poly40" d="M 545,8 L 546,8 546,9 545,9 545,8 Z" fill="none" stroke="black" stroke-width="0.1" />
  <path id="poly41" d="M 231,9 L 232,9 232,10 231,10 231,9 Z" fill="none" stroke="black" stroke-width="0.1" />
  <path id="poly42" d="M 299,9 L 300,9 300,10 299,10 299,9 Z" fill="none" stroke="black" stroke-width="0.1" />
  <path id="poly43" d="M 491,9 L 492,9 492,10 491,10 491,9 Z" fill="none" stroke="black" stroke-width="0.1" />
  <path id="poly44" d="M 41,10 L 42,10 42,11 41,11 41,10 Z" fill="none" stroke="black" stroke-width="0.1" />
  <path id="poly45" d="M 178,10 L 179,10 179,11 178,11 178,10 Z" fill="none" stroke="black" stroke-width="0.1" />
  <path id="poly46" d="M 262,10 L 263,10 263,11 262,11 262,10 Z" fill="none" stroke="black" stroke-width="0.1" />
  <path id="poly47" d="M 572,10 L 573,10 573,11 572,11 572,10 Z" fill="none" stroke="black" stroke-width="0.1" />
  <path id="poly48" d="M 122,11 L 123,11 123,12 122,12 122,11 Z" fill="none" stroke="black" stroke-width="0.1" />
  <path id="poly49" d="M 428,11 L 429,11 429,12 428,12 428,11 Z" fill="none" stroke="black" stroke-width="0.1" />
  <path id="poly50" d="M 588,11 L 589,11 589,12 588,12 588,11 Z" fill="none" stroke="black" stroke-width="0.1" />
  </g>
</svg>