<?xml version="1.0" encoding="UTF-8"?>
<svg xmlns="http://www.w3.org/2000/svg" viewBox="0 0 46 40" width="460" height="400">
  <!-- Sprite: PTERO_1 -->
  <!-- pixelW="46" pixelH="40" -->
  <g id="sprite">
  <path id="poly0" d="M 10,8 L 11,8 12,8 13,8 14,8 14,9 14,10 14,11 14,12 15,12 16,12 16,13 16,14 16,15 16,16 17,16 18,16 19,16 20,16 21,16 22,16 23,16 24,16 25,16 26,16 27,16 28,16 29,16 30,16 30,17 30,18 31,18 32,18 32,19 32,20 33,20 34,20 35,20 36,20 37,20 38,20 39,20 40,20 41,20 42,20 43,20 44,20 44,21 44,22 43,22 42,22 41,22 40,22 39,22 38,22 38,23 38,24 39,24 40,24 41,24 42,24 42,25 42,26 41,26 40,26 39,26 38,26 37,26 36,26 36,27 36,28 35,28 34,28 33,28 32,28 31,28 30,28 29,28 28,28 27,28 26,28 26,29 26,30 25,30 24,30 24,31 24,32 23,32 22,32 22,33 22,34 22,35 22,36 21,36 20,36 20,37 20,38 19,38 18,38 18,37 18,36 18,35 18,34 18,33 18,32 18,31 18,30 18,29 18,28 18,27 18,26 18,25 18,24 18,23 18,22 17,22 16,22 16,21 16,20 15,20 14,20 14,19 14,18 13,18 12,18 11,18 10,18 9,18 8,18 7,18 6,18 5,18 4,18 3,18 2,18 2,17 2,16 3,16 4,16 4,15 4,14 5,14 6,14 6,13 6,12 7,12 8,12 8,11 8,10 9,10 10,10 10,9 10,8 Z" fill="none" stroke="black" stroke-width="0.1" />
  </g>
</svg>