<?xml version="1.0" encoding="UTF-8"?>
<svg xmlns="http://www.w3.org/2000/svg" viewBox="0 0 46 40" width="460" height="400">
  <!-- Sprite: PTERO_2 -->
  <!-- pixelW="46" pixelH="40" -->
  <g id="sprite">
  <path id="poly0" d="M 16,2 L 17,2 18,2 18,3 18,4 19,4 20,4 20,5 20,6 21,6 22,6 22,7 22,8 23,8 24,8 24,9 24,10 25,10 26,10 26,11 26,12 27,12 28,12 28,13 28,14 29,14 30,14 30,15 30,16 30,17 30,18 31,18 32,18 32,19 32,20 33,20 34,20 35,20 36,20 37,20 38,20 39,20 40,20 41,20 42,20 43,20 44,20 44,21 44,22 43,22 42,22 41,22 40,22 39,22 38,22 38,23 38,24 39,24 40,24 41,24 42,24 42,25 42,26 41,26 40,26 39,26 38,26 37,26 36,26 36,27 36,28 35,28 34,28 33,28 32,28 31,28 30,28 29,28 28,28 27,28 26,28 25,28 24,28 23,28 22,28 22,27 22,26 21,26 20,26 20,25 20,24 19,24 18,24 18,23 18,22 17,22 16,22 16,21 16,20 15,20 14,20 14,19 14,18 13,18 12,18 11,18 10,18 9,18 8,18 7,18 6,18 5,18 4,18 3,18 2,18 2,17 2,16 3,16 4,16 4,15 4,14 5,14 6,14 6,13 6,12 7,12 8,12 8,11 8,10 9,10 10,10 10,9 10,8 11,8 12,8 13,8 14,8 14,9 14,10 14,11 14,12 15,12 16,12 16,13 16,14 16,15 16,16 17,16 18,16 18,15 18,14 18,13 18,12 18,11 18,10 18,9 18,8 17,8 16,8 16,7 16,6 16,5 16,4 16,3 16,2 Z" fill="none" stroke="black" stroke-width="0.1" />
  </g>
</svg>