<?xml version="1.0" encoding="UTF-8"?>
<svg xmlns="http://www.w3.org/2000/svg" viewBox="0 0 34 30" width="340" height="300">
  <!-- Sprite: RESTART -->
  <!-- pixelW="34" pixelH="30" -->
  <g id="sprite">
  <path id="poly0" d="M 2,0 L 3,0 4,0 5,0 6,0 7,0 8,0 9,0 10,0 11,0 12,0 13,0 14,0 15,0 16,0 17,0 18,0 19,0 20,0 21,0 22,0 23,0 24,0 25,0 26,0 27,0 28,0 29,0 30,0 31,0 32,0 32,1 33,1 33,2 34,2 34,3 34,4 34,5 34,6 34,7 34,8 34,9 34,10 34,11 34,12 34,13 34,14 34,15 34,16 34,17 34,18 34,19 34,20 34,21 34,22 34,23 34,24 34,25 34,26 34,27 34,28 33,28 33,29 32,29 32,30 31,30 30,30 29,30 28,30 27,30 26,30 25,30 24,30 23,30 22,30 21,30 20,30 19,30 18,30 17,30 16,30 15,30 14,30 13,30 12,30 11,30 10,30 9,30 8,30 7,30 6,30 5,30 4,30 3,30 2,30 2,29 1,29 1,28 0,28 0,27 0,26 0,25 0,24 0,23 0,22 0,21 0,20 0,19 0,18 0,17 0,16 0,15 0,14 0,13 0,12 0,11 0,10 0,9 0,8 0,7 0,6 0,5 0,4 0,3 0,2 1,2 1,1 2,1 2,0 Z" fill="none" stroke="black" stroke-width="0.1" />
  <path id="poly1" d="M 15,5 L 14,5 14,6 14,7 14,8 13,8 12,8 11,8 10,8 9,8 9,9 8,9 8,10 7,10 7,11 7,12 7,13 7,14 7,15 7,16 7,17 7,18 7,19 7,20 8,20 8,21 9,21 9,22 10,22 11,22 12,22 13,22 14,22 15,22 16,22 17,22 18,22 19,22 20,22 21,22 22,22 23,22 24,22 25,22 25,21 26,21 26,20 27,20 27,19 27,18 27,17 27,16 27,15 27,14 27,13 27,12 27,11 27,10 26,10 26,9 25,9 25,8 24,8 23,8 22,8 22,9 22,10 22,11 23,11 24,11 24,12 24,13 24,14 24,15 24,16 24,17 24,18 24,19 23,19 22,19 21,19 20,19 19,19 18,19 17,19 16,19 15,19 14,19 13,19 12,19 11,19 10,19 10,18 10,17 10,16 10,15 10,14 10,13 10,12 10,11 11,11 12,11 13,11 14,11 14,12 14,13 14,14 15,14 15,13 16,13 16,12 17,12 17,11 18,11 18,10 19,10 19,9 18,9 18,8 17,8 17,7 16,7 16,6 15,6 15,5 Z" fill="none" stroke="black" stroke-width="0.1" />
  </g>
</svg>