<?xml version="1.0" encoding="UTF-8"?>
<svg xmlns="http://www.w3.org/2000/svg" viewBox="0 0 191 11" width="1910" height="110">
  <!-- Sprite: TEXT_GAME_OVER -->
  <!-- pixelW="191" pixelH="11" -->
  <g id="sprite">
  <path id="poly0" d="M 3,0 L 4,0 5,0 6,0 7,0 8,0 9,0 10,0 11,0 11,1 11,2 10,2 9,2 8,2 7,2 6,2 5,2 5,3 4,3 3,3 3,4 3,5 3,6 3,7 3,8 4,8 5,8 5,9 6,9 7,9 8,9 8,8 8,7 8,6 7,6 6,6 6,5 7,5 8,5 9,5 10,5 11,5 11,6 11,7 11,8 11,9 11,10 11,11 10,11 9,11 8,11 7,11 6,11 5,11 4,11 3,11 3,10 3,9 2,9 2,8 1,8 0,8 0,7 0,6 0,5 0,4 0,3 1,3 2,3 2,2 3,2 3,1 3,0 Z" fill="none" stroke="black" stroke-width="0.1" />
  <path id="poly1" d="M 72,0 L 73,0 74,0 75,0 76,0 77,0 78,0 79,0 80,0 81,0 82,0 83,0 83,1 83,2 82,2 81,2 80,2 79,2 78,2 77,2 76,2 75,2 75,3 75,4 75,5 76,5 77,5 78,5 79,5 80,5 81,5 81,6 80,6 79,6 78,6 77,6 76,6 75,6 75,7 75,8 75,9 76,9 77,9 78,9 79,9 80,9 81,9 82,9 83,9 83,10 83,11 82,11 81,11 80,11 79,11 78,11 77,11 76,11 75,11 74,11 73,11 72,11 72,10 72,9 72,8 72,7 72,6 72,5 72,4 72,3 72,2 72,1 72,0 Z" fill="none" stroke="black" stroke-width="0.1" />
  <path id="poly2" d="M 156,0 L 157,0 158,0 159,0 160,0 161,0 162,0 163,0 164,0 165,0 166,0 167,0 167,1 167,2 166,2 165,2 164,2 163,2 162,2 161,2 160,2 159,2 159,3 159,4 159,5 160,5 161,5 162,5 163,5 164,5 165,5 165,6 164,6 163,6 162,6 161,6 160,6 159,6 159,7 159,8 159,9 160,9 161,9 162,9 163,9 164,9 165,9 166,9 167,9 167,10 167,11 166,11 165,11 164,11 163,11 162,11 161,11 160,11 159,11 158,11 157,11 156,11 156,10 156,9 156,8 156,7 156,6 156,5 156,4 156,3 156,2 156,1 156,0 Z" fill="none" stroke="black" stroke-width="0.1" />
  <path id="poly3" d="M 48,0 L 49,0 50,0 51,0 51,1 51,2 52,2 53,2 53,3 54,3 54,2 55,2 56,2 56,1 56,0 57,0 58,0 59,0 59,1 59,2 59,3 59,4 59,5 59,6 59,7 59,8 59,9 59,10 59,11 58,11 57,11 56,11 56,10 56,9 56,8 56,7 56,6 55,6 54,6 54,7 54,8 53,8 53,7 53,6 52,6 51,6 51,7 51,8 51,9 51,10 51,11 50,11 49,11 48,11 48,10 48,9 48,8 48,7 48,6 48,5 48,4 48,3 48,2 48,1 48,0 Z" fill="none" stroke="black" stroke-width="0.1" />
  <path id="poly4" d="M 132,0 L 133,0 134,0 135,0 135,1 135,2 135,3 135,4 135,5 136,5 137,5 137,6 138,6 138,5 139,5 140,5 140,4 140,3 140,2 140,1 140,0 141,0 142,0 143,0 143,1 143,2 143,3 143,4 143,5 143,6 142,6 141,6 141,7 141,8 140,8 140,9 139,9 138,9 138,10 138,11 137,11 137,10 137,9 136,9 135,9 135,8 134,8 134,7 134,6 133,6 132,6 132,5 132,4 132,3 132,2 132,1 132,0 Z" fill="none" stroke="black" stroke-width="0.1" />
  <path id="poly5" d="M 180,0 L 181,0 182,0 183,0 184,0 185,0 186,0 187,0 188,0 189,0 189,1 189,2 190,2 191,2 191,3 191,4 191,5 191,6 190,6 189,6 188,6 188,7 188,8 189,8 189,9 190,9 191,9 191,10 191,11 190,11 189,11 188,11 187,11 186,11 186,10 186,9 185,9 185,8 184,8 183,8 183,9 183,10 183,11 182,11 181,11 180,11 180,10 180,9 180,8 180,7 180,6 180,5 180,4 180,3 180,2 180,1 180,0 Z" fill="none" stroke="black" stroke-width="0.1" />
  <path id="poly6" d="M 27,0 L 28,0 29,0 30,0 31,0 32,0 32,1 32,2 33,2 33,3 34,3 35,3 35,4 35,5 35,6 35,7 35,8 35,9 35,10 35,11 34,11 33,11 32,11 32,10 32,9 32,8 31,8 30,8 29,8 28,8 27,8 27,9 27,10 27,11 26,11 25,11 24,11 24,10 24,9 24,8 24,7 24,6 24,5 24,4 24,3 25,3 26,3 26,2 27,2 27,1 27,0 Z" fill="none" stroke="black" stroke-width="0.1" />
  <path id="poly7" d="M 110,0 L 111,0 112,0 113,0 114,0 115,0 116,0 117,0 117,1 117,2 118,2 119,2 119,3 119,4 119,5 119,6 119,7 119,8 119,9 118,9 117,9 117,10 117,11 116,11 115,11 114,11 113,11 112,11 111,11 110,11 110,10 110,9 109,9 108,9 108,8 108,7 108,6 108,5 108,4 108,3 108,2 109,2 110,2 110,1 110,0 Z" fill="none" stroke="black" stroke-width="0.1" />
  <path id="poly8" d="M 112,2 L 111,2 111,3 111,4 111,5 111,6 111,7 111,8 111,9 112,9 113,9 114,9 115,9 116,9 116,8 116,7 116,6 116,5 116,4 116,3 116,2 115,2 114,2 113,2 112,2 Z" fill="none" stroke="black" stroke-width="0.1" />
  <path id="poly9" d="M 30,2 L 29,2 29,3 28,3 27,3 27,4 27,5 27,6 28,6 29,6 30,6 31,6 32,6 32,5 32,4 32,3 31,3 30,3 30,2 Z" fill="none" stroke="black" stroke-width="0.1" />
  <path id="poly10" d="M 184,2 L 183,2 183,3 183,4 183,5 183,6 184,6 185,6 186,6 186,5 187,5 188,5 188,4 188,3 188,2 187,2 186,2 185,2 184,2 Z" fill="none" stroke="black" stroke-width="0.1" />
  </g>
</svg>