<?xml version="1.0" encoding="UTF-8"?>
<svg xmlns="http://www.w3.org/2000/svg" viewBox="0 0 44 47" width="440" height="470">
  <!-- Sprite: TREX_RUN_1 -->
  <!-- pixelW="44" pixelH="47" -->
  <g id="sprite">
  <path id="poly0" d="M 24,2 L 25,2 26,2 27,2 28,2 29,2 30,2 31,2 32,2 33,2 34,2 35,2 36,2 37,2 38,2 39,2 40,2 40,3 40,4 41,4 42,4 42,5 42,6 42,7 42,8 42,9 42,10 42,11 42,12 42,13 41,13 40,13 39,13 38,13 37,13 36,13 35,13 34,13 33,13 32,13 32,14 32,15 33,15 34,15 35,15 36,15 37,15 38,15 38,16 38,17 37,17 36,17 35,17 34,17 33,17 32,17 31,17 30,17 30,18 30,19 30,20 30,21 31,21 32,21 33,21 34,21 34,22 34,23 34,24 34,25 33,25 32,25 32,24 32,23 31,23 30,23 30,24 30,25 30,26 30,27 30,28 30,29 30,30 29,30 28,30 28,31 28,32 28,33 27,33 26,33 26,34 26,35 25,35 24,35 24,36 24,37 25,37 26,37 27,37 27,38 27,39 26,39 25,39 24,39 23,39 22,39 22,38 22,37 21,37 20,37 19,37 18,37 18,38 18,39 17,39 16,39 16,40 16,41 15,41 14,41 14,42 14,43 15,43 16,43 16,44 16,45 15,45 14,45 13,45 12,45 12,44 12,43 12,42 12,41 12,40 12,39 12,38 12,37 11,37 10,37 10,36 10,35 9,35 8,35 8,34 8,33 7,33 6,33 6,32 6,31 5,31 4,31 4,30 4,29 3,29 2,29 2,28 2,27 2,26 2,25 2,24 2,23 2,22 2,21 2,20 2,19 2,18 2,17 3,17 4,17 4,18 4,19 4,20 4,21 5,21 6,21 6,22 6,23 7,23 8,23 8,24 8,25 9,25 10,25 11,25 12,25 12,24 12,23 13,23 14,23 14,22 14,21 15,21 16,21 17,21 17,20 17,19 18,19 19,19 20,19 20,18 20,17 21,17 22,17 22,16 22,15 22,14 22,13 22,12 22,11 22,10 22,9 22,8 22,7 22,6 22,5 22,4 23,4 24,4 24,3 24,2 Z" fill="none" stroke="black" stroke-width="0.1" />
  <path id="poly1" d="M 27,5 L 26,5 26,6 26,7 27,7 28,7 28,6 28,5 27,5 Z" fill="none" stroke="black" stroke-width="0.1" />
  </g>
</svg>