<?xml version="1.0" encoding="UTF-8"?>
<svg xmlns="http://www.w3.org/2000/svg" viewBox="0 0 59 25" width="590" height="250">
  <!-- Sprite: TREX_DUCK_1 -->
  <!-- pixelW="59" pixelH="25" -->
  <g id="sprite">
  <path id="poly0" d="M 2,0 L 3,0 4,0 5,0 6,0 7,0 8,0 8,1 9,1 10,1 11,1 12,1 13,1 14,1 15,1 16,1 16,0 17,0 18,0 19,0 20,0 21,0 22,0 23,0 24,0 25,0 26,0 27,0 28,0 29,0 30,0 31,0 32,0 33,0 33,1 34,1 35,1 36,1 37,1 37,0 38,0 39,0 40,0 41,0 42,0 43,0 44,0 45,0 46,0 47,0 48,0 49,0 50,0 51,0 52,0 53,0 54,0 55,0 56,0 57,0 57,1 57,2 57,3 57,4 57,5 57,6 57,7 57,8 57,9 56,9 55,9 54,9 53,9 52,9 51,9 50,9 49,9 48,9 47,9 47,10 47,11 48,11 49,11 50,11 51,11 52,11 53,11 53,12 53,13 52,13 51,13 50,13 49,13 48,13 47,13 46,13 45,13 44,13 43,13 42,13 41,13 40,13 39,13 39,12 39,11 38,11 37,11 36,11 35,11 35,12 35,13 35,14 34,14 33,14 33,15 33,16 34,16 35,16 35,17 35,18 34,18 33,18 32,18 31,18 31,17 31,16 31,15 31,14 30,14 29,14 28,14 27,14 26,14 26,15 25,15 25,16 25,17 24,17 23,17 23,18 23,19 22,19 21,19 21,20 21,21 22,21 23,21 23,22 23,23 22,23 21,23 20,23 19,23 19,22 19,21 19,20 19,19 19,18 19,17 19,16 19,15 18,15 17,15 16,15 15,15 15,16 15,17 16,17 17,17 17,18 17,19 16,19 15,19 14,19 13,19 13,18 13,17 13,16 13,15 14,15 14,14 14,13 13,13 12,13 12,12 12,11 11,11 10,11 10,10 10,9 9,9 8,9 8,8 8,7 7,7 6,7 6,6 6,5 5,5 4,5 4,4 4,3 3,3 2,3 2,2 2,1 2,0 Z" fill="none" stroke="black" stroke-width="0.1" />
  <path id="poly1" d="M 42,1 L 41,1 41,2 41,3 42,3 43,3 43,2 43,1 42,1 Z" fill="none" stroke="black" stroke-width="0.1" />
  </g>
</svg>